<svg xmlns="http://www.w3.org/2000/svg" viewBox="0 0 800 202"><style>.st0{display:none;} .st1{display:inline;} .st2{fill:#FFFFFF;} .st3{fill:none;stroke:#9882CE;stroke-width:4;stroke-miterlimit:10;} .st4{fill:none;stroke:#404040;stroke-width:4;stroke-linecap:round;stroke-linejoin:round;stroke-miterlimit:10;} .st5{fill:#B3E3FF;stroke:#404040;stroke-width:4;stroke-miterlimit:10;} .st6{fill:#FFFFFF;stroke:#59AFE1;stroke-width:4;stroke-miterlimit:10;} .st7{fill:#FFFFFF;stroke:#404040;stroke-width:4;stroke-miterlimit:10;} .st8{fill:#B18BE8;stroke:#404040;stroke-width:4;stroke-linecap:round;stroke-linejoin:round;stroke-miterlimit:10;} .st9{fill:#404040;} .st10{fill:#CCCCCC;stroke:#404040;stroke-width:4;stroke-miterlimit:10;} .st11{fill:#FFFFFF;stroke:#404040;stroke-width:4;stroke-linecap:round;stroke-linejoin:round;stroke-miterlimit:10;} .st12{fill:#999999;} .st13{fill:#B3E3FF;stroke:#404040;stroke-width:4;stroke-linejoin:round;stroke-miterlimit:10;} .st14{fill:#59AFE1;stroke:#404040;stroke-width:4;stroke-linejoin:round;stroke-miterlimit:10;} .st15{fill:none;stroke:#CCCCCC;stroke-linecap:round;stroke-linejoin:round;stroke-miterlimit:10;} .st16{fill:none;stroke:#404040;stroke-width:4;stroke-miterlimit:10;} .st17{fill:#B18BE8;stroke:#404040;stroke-width:4;stroke-miterlimit:10;} .st18{fill:#FFFFFF;stroke:#6693ED;stroke-width:4;stroke-miterlimit:10;} .st19{fill:#4ED1A1;stroke:#404040;stroke-width:4;stroke-miterlimit:10;} .st20{fill:none;stroke:#4D4D4D;stroke-width:4;stroke-linecap:round;stroke-linejoin:round;stroke-miterlimit:10;} .st21{fill:none;stroke:#59AFE1;stroke-width:4;stroke-linecap:round;stroke-linejoin:round;stroke-miterlimit:10;} .st22{fill:none;stroke:#59AFE1;stroke-width:4;stroke-miterlimit:10;} .st23{fill:none;stroke:#CCCCCC;stroke-width:4;stroke-linecap:round;stroke-linejoin:round;stroke-miterlimit:10;} .st24{fill:#FFFFFF;stroke:#CCCCCC;stroke-width:4;stroke-linecap:round;stroke-linejoin:round;stroke-miterlimit:10;} .st25{fill:#FFFFFF;stroke:#404040;stroke-width:4;stroke-linejoin:round;stroke-miterlimit:10;} .st26{fill:#CCCCCC;} .st27{fill:#4ED1A1;stroke:#404040;stroke-width:4;stroke-linecap:round;stroke-linejoin:round;stroke-miterlimit:10;} .st28{fill:#4CD3D6;stroke:#404040;stroke-width:4;stroke-linejoin:round;stroke-miterlimit:10;} .st29{fill:#B3E3FF;stroke:#404040;stroke-width:4;stroke-linecap:round;stroke-linejoin:round;stroke-miterlimit:10;}</style><path class="st8" d="M292.6 4.4H507.40000000000003V135.70000000000002H292.6z"/><path class="st5" d="M312.9 24.7H487.2V115.4H312.9z"/><path class="st8" d="M518.1 194.8L281.9 194.8 292.6 148.9 507.4 148.9z"/><path class="st2" d="M402.8,77.9c-1.1,0-2-0.9-2-2V37.7c0-1.1,0.9-2,2-2h16.7c0.6,0,1.1,0.2,1.5,0.7l12.3,13.9 c0.3,0.4,0.5,0.8,0.5,1.3v24.2c0,1.1-0.9,2-2,2H402.8z"/><path class="st9" d="M419.4,37.7l12.3,13.9v24.2h-29V37.7H419.4 M419.4,33.7h-16.7c-2.2,0-4,1.8-4,4v38.2c0,2.2,1.8,4,4,4h29 c2.2,0,4-1.8,4-4V51.7c0-1-0.4-1.9-1-2.6l-12.3-13.9C421.7,34.2,420.6,33.7,419.4,33.7L419.4,33.7z"/><path class="st9" d="M419.4,35.7c0-1.1,15.4,15.9,14.3,15.9h-12.3c-1.1,0-2-0.9-2-2V35.7z"/><path class="st2" d="M385.5,91.2c-1.1,0-2-0.9-2-2V51.1c0-1.1,0.9-2,2-2h16.7c0.6,0,1.1,0.2,1.5,0.7L416,63.7 c0.3,0.4,0.5,0.8,0.5,1.3v24.2c0,1.1-0.9,2-2,2H385.5z"/><path class="st9" d="M402.1,51.1L414.5,65v24.2h-29V51.1H402.1 M402.1,47.1h-16.7c-2.2,0-4,1.8-4,4v38.2c0,2.2,1.8,4,4,4h29 c2.2,0,4-1.8,4-4V65c0-1-0.4-1.9-1-2.6l-12.3-13.9C404.4,47.6,403.3,47.1,402.1,47.1L402.1,47.1z"/><path class="st9" d="M402.1,49.1c0-1.1,15.4,15.9,14.3,15.9h-12.3c-1.1,0-2-0.9-2-2V49.1z"/><path class="st2" d="M368.2,104.5c-1.1,0-2-0.9-2-2V64.4c0-1.1,0.9-2,2-2h16.7c0.6,0,1.1,0.2,1.5,0.7L398.6,77 c0.3,0.4,0.5,0.8,0.5,1.3v24.2c0,1.1-0.9,2-2,2H368.2z"/><path class="st9" d="M384.8,64.4l12.3,13.9v24.2h-29V64.4H384.8 M384.8,60.4h-16.7c-2.2,0-4,1.8-4,4v38.2c0,2.2,1.8,4,4,4h29 c2.2,0,4-1.8,4-4V78.3c0-1-0.4-1.9-1-2.6l-12.3-13.9C387,60.9,386,60.4,384.8,60.4L384.8,60.4z"/><path class="st9" d="M384.8,62.4c0-1.1,15.4,15.9,14.3,15.9h-12.3c-1.1,0-2-0.9-2-2V62.4z"/></svg>